<svg width="251" height="250" viewBox="0 0 251 250" fill="none" xmlns="http://www.w3.org/2000/svg">
<path fill-rule="evenodd" clip-rule="evenodd" d="M95.8939 0H155.894V52.1472L196.468 11.5736L238.894 54L197.894 95H250.894V155H198.747L239.168 195.421L196.742 237.848L155.894 197V250H95.8939V197L55.0462 237.848L12.6198 195.421L53.0411 155H0.893921V95H53.8939L12.8939 54L55.3203 11.5736L95.8939 52.1472V0ZM82.5508 119.841C79.4266 122.965 79.4266 128.03 82.5508 131.154L120.735 169.338C123.859 172.462 128.924 172.462 132.048 169.338L170.232 131.154C173.356 128.03 173.356 122.965 170.232 119.841L132.048 81.6569C128.924 78.5327 123.859 78.5327 120.735 81.6569L82.5508 119.841Z" fill="#95E3B7"/>
</svg>
