<svg width="247" height="247" viewBox="0 0 247 247" fill="none" xmlns="http://www.w3.org/2000/svg">
<path fill-rule="evenodd" clip-rule="evenodd" d="M84.0571 10.9822C78.6352 7.12352 71.0455 10.2803 69.9593 16.8459L68.6451 24.7906C67.7618 30.1298 62.4001 33.4877 57.2109 31.9515L49.4895 29.6656C43.1085 27.7765 36.955 33.2266 38.0595 39.7891L39.3961 47.7301C40.2944 53.0668 36.3135 57.9837 30.9066 58.2156L22.8614 58.5607C16.2127 58.8459 12.1623 65.9988 15.3378 71.8471L19.1804 78.9238C21.7628 83.6797 19.5941 89.6228 14.5556 91.5977L7.0583 94.5364C0.862437 96.9649 -0.645977 105.045 4.25645 109.546L10.1886 114.991C14.1753 118.651 14.0539 124.976 9.92959 128.48L3.79272 133.694C-1.27888 138.003 -0.0818304 146.135 6.01622 148.8L13.3951 152.024C18.3542 154.191 20.2931 160.213 17.53 164.866L13.4186 171.79C10.0208 177.512 13.7936 184.816 20.4264 185.356L28.4525 186.01C33.8464 186.449 37.6356 191.515 36.5332 196.813L34.8927 204.697C33.537 211.212 39.4767 216.895 45.9256 215.252L53.729 213.264C58.9733 211.928 64.2022 215.49 64.8798 220.859L65.8881 228.848C66.7213 235.451 74.1843 238.896 79.7504 235.249L86.4856 230.835C91.012 227.869 97.1139 229.539 99.4981 234.397L103.046 241.626C105.978 247.601 114.155 248.437 118.235 243.179L123.172 236.818C126.49 232.542 132.804 232.141 136.637 235.962L142.339 241.647C147.052 246.346 155.058 244.481 157.21 238.184L159.814 230.564C161.564 225.443 167.405 223.013 172.271 225.383L179.511 228.908C185.494 231.822 192.461 227.459 192.451 220.804L192.44 212.751C192.432 207.34 197.168 203.145 202.539 203.806L210.532 204.79C217.137 205.603 222.309 199.214 220.14 192.923L217.514 185.311C215.75 180.195 218.867 174.689 224.162 173.571L232.041 171.906C238.552 170.531 241.37 162.809 237.275 157.563L232.32 151.215C228.99 146.949 230.151 140.73 234.796 137.953L241.707 133.82C247.419 130.405 247.576 122.186 242 118.554L235.253 114.159C230.718 111.206 229.796 104.947 233.288 100.812L238.483 94.6589C242.776 89.5742 240.257 81.7497 233.803 80.1251L225.994 78.1592C220.746 76.8381 217.843 71.2174 219.802 66.1728L222.718 58.6665C225.127 52.4633 220.204 45.8807 213.573 46.4396L205.548 47.1158C200.156 47.5703 195.584 43.197 195.8 37.7895L196.12 29.7432C196.385 23.0937 189.591 18.4664 183.501 21.1482L176.131 24.3932C171.178 26.5741 165.434 23.922 163.882 18.7376L161.572 11.0232C159.664 4.64799 151.736 2.47744 146.846 6.99149L140.929 12.4537C136.952 16.1246 130.659 15.4812 127.507 11.0817L122.818 4.53519C118.943 -0.874896 110.739 -0.353512 107.58 5.50366L103.758 12.5911C101.189 17.3543 95.0271 18.7893 90.6179 15.6514L84.0571 10.9822ZM101 94C96.5817 94 93 97.5817 93 102V146C93 150.418 96.5817 154 101 154H145C149.418 154 153 150.418 153 146V102C153 97.5817 149.418 94 145 94H101Z" fill="#95E3B7"/>
</svg>
