<svg width="218" height="240" viewBox="0 0 218 240" fill="none" xmlns="http://www.w3.org/2000/svg">
<path fill-rule="evenodd" clip-rule="evenodd" d="M128.724 6.17955C116.489 -0.755248 101.511 -0.755243 89.276 6.17956L54.625 25.8197L20.2906 46.0083C8.1674 53.1367 0.678399 66.108 0.566607 80.1713L0.25 120L0.566607 159.829C0.678399 173.892 8.16741 186.863 20.2906 193.992L54.625 214.18L89.276 233.82C101.511 240.755 116.489 240.755 128.724 233.82L163.375 214.18L197.709 193.992C209.833 186.863 217.322 173.892 217.433 159.829L217.75 120L217.433 80.1713C217.322 66.108 209.833 53.1367 197.709 46.0083L163.375 25.8197L128.724 6.17955ZM116.862 56.5898C110.744 53.1224 103.255 53.1224 97.138 56.5898L77.855 67.5194L58.7482 78.7541C52.6866 82.3183 48.9421 88.804 48.8862 95.8356L48.71 118L48.8862 140.164C48.9421 147.196 52.6866 153.682 58.7482 157.246L77.855 168.481L97.138 179.41C103.255 182.878 110.744 182.878 116.862 179.41L136.145 168.481L155.252 157.246C161.313 153.682 165.058 147.196 165.114 140.164L165.29 118L165.114 95.8356C165.058 88.804 161.313 82.3183 155.252 78.7541L136.145 67.5194L116.862 56.5898Z" fill="#95E3B7"/>
</svg>
