<svg width="783" height="783" viewBox="0 0 783 783" fill="none" xmlns="http://www.w3.org/2000/svg">
<rect width="782.298" height="782.298" rx="120" fill="#212126"/>
<path d="M74.3563 472.502V312.762H127.755C146.316 312.762 161.605 316.109 173.624 322.803C185.795 329.344 194.77 338.624 200.552 350.643C206.485 362.509 209.451 376.506 209.451 392.632C209.451 408.758 206.485 422.831 200.552 434.849C194.77 446.716 185.871 455.996 173.852 462.69C161.833 469.232 146.468 472.502 127.755 472.502H74.3563ZM105.163 446.031H126.158C139.241 446.031 149.511 443.901 156.965 439.641C164.572 435.382 169.973 429.296 173.167 421.385C176.362 413.322 177.96 403.738 177.96 392.632C177.96 381.374 176.362 371.79 173.167 363.879C169.973 355.816 164.572 349.654 156.965 345.394C149.511 341.135 139.241 339.005 126.158 339.005H105.163V446.031Z" fill="#F4F1F2"/>
<path d="M265.824 475.241C256.24 475.241 248.329 473.719 242.091 470.677C235.854 467.482 231.214 463.298 228.171 458.126C225.28 452.801 223.835 446.944 223.835 440.554C223.835 433.556 225.585 427.395 229.084 422.07C232.735 416.745 238.136 412.562 245.286 409.519C252.588 406.476 261.717 404.955 272.67 404.955H301.195C301.195 399.326 300.435 394.686 298.913 391.035C297.392 387.231 295.034 384.417 291.839 382.591C288.644 380.766 284.384 379.853 279.06 379.853C273.279 379.853 268.334 381.146 264.227 383.732C260.271 386.166 257.837 389.97 256.924 395.142H227.03C227.791 386.927 230.453 379.853 235.017 373.92C239.733 367.834 245.895 363.118 253.501 359.771C261.26 356.424 269.856 354.751 279.288 354.751C290.09 354.751 299.446 356.576 307.357 360.227C315.268 363.879 321.353 369.127 325.613 375.973C329.873 382.819 332.002 391.263 332.002 401.304V472.502H305.988L302.565 454.931C300.891 457.974 298.913 460.712 296.631 463.146C294.349 465.58 291.687 467.71 288.644 469.536C285.602 471.361 282.179 472.731 278.375 473.643C274.572 474.708 270.388 475.241 265.824 475.241ZM273.127 451.508C277.082 451.508 280.581 450.823 283.624 449.454C286.819 447.933 289.557 445.955 291.839 443.521C294.121 440.935 295.871 438.044 297.088 434.849C298.457 431.502 299.37 427.927 299.826 424.124V423.896H276.321C271.605 423.896 267.726 424.504 264.683 425.721C261.793 426.786 259.663 428.384 258.294 430.513C256.924 432.643 256.24 435.077 256.24 437.816C256.24 440.859 256.924 443.369 258.294 445.346C259.663 447.324 261.64 448.846 264.227 449.911C266.813 450.975 269.78 451.508 273.127 451.508Z" fill="#F4F1F2"/>
<path d="M353.439 472.502V357.489H384.246V472.502H353.439ZM368.957 341.743C363.48 341.743 358.916 340.146 355.265 336.951C351.766 333.604 350.016 329.42 350.016 324.4C350.016 319.379 351.766 315.272 355.265 312.077C358.916 308.73 363.48 307.057 368.957 307.057C374.586 307.057 379.15 308.73 382.649 312.077C386.3 315.272 388.126 319.379 388.126 324.4C388.126 329.42 386.3 333.604 382.649 336.951C379.15 340.146 374.586 341.743 368.957 341.743Z" fill="#F4F1F2"/>
<path d="M408.074 472.502V312.762H473.567C484.673 312.762 494.029 314.511 501.636 318.01C509.243 321.509 514.948 326.378 518.751 332.615C522.707 338.701 524.684 345.775 524.684 353.838C524.684 361.901 522.935 368.671 519.436 374.148C515.937 379.625 511.297 383.884 505.515 386.927C499.887 389.818 493.649 391.491 486.803 391.947L490.454 389.437C497.757 389.741 504.222 391.719 509.851 395.37C515.632 398.87 520.12 403.586 523.315 409.519C526.662 415.452 528.336 421.918 528.336 428.916C528.336 437.436 526.282 444.966 522.174 451.508C518.067 458.05 512.133 463.222 504.374 467.026C496.616 470.677 487.107 472.502 475.849 472.502H408.074ZM438.881 447.4H470.829C479.196 447.4 485.662 445.499 490.226 441.695C494.79 437.892 497.072 432.415 497.072 425.265C497.072 418.114 494.714 412.562 489.998 408.606C485.282 404.498 478.74 402.445 470.373 402.445H438.881V447.4ZM438.881 379.396H468.547C476.61 379.396 482.695 377.571 486.803 373.92C491.063 370.268 493.193 365.096 493.193 358.402C493.193 351.86 491.063 346.764 486.803 343.112C482.695 339.309 476.534 337.407 468.319 337.407H438.881V379.396Z" fill="#F4F1F2"/>
<path d="M587.827 475.241C578.546 475.241 570.559 473.339 563.865 469.536C557.324 465.58 552.303 459.875 548.804 452.421C545.305 444.814 543.556 435.458 543.556 424.352V357.489H574.363V421.157C574.363 430.437 576.264 437.436 580.068 442.152C584.023 446.868 590.032 449.226 598.096 449.226C603.268 449.226 607.832 448.085 611.788 445.803C615.743 443.369 618.862 439.946 621.144 435.534C623.578 430.97 624.795 425.417 624.795 418.875V357.489H655.374V472.502H628.446L625.936 453.79C622.589 460.332 617.645 465.58 611.103 469.536C604.561 473.339 596.802 475.241 587.827 475.241Z" fill="#F4F1F2"/>
<path d="M689.229 473.643C683.448 473.643 678.808 471.97 675.309 468.623C671.81 465.124 670.06 460.864 670.06 455.844C670.06 450.823 671.81 446.64 675.309 443.293C678.808 439.794 683.448 438.044 689.229 438.044C694.706 438.044 699.194 439.794 702.693 443.293C706.192 446.64 707.942 450.823 707.942 455.844C707.942 460.864 706.192 465.124 702.693 468.623C699.194 471.97 694.706 473.643 689.229 473.643Z" fill="#2BB77B"/>
</svg>
